<?xml version="1.0" standalone="no"?>
<svg version="1.1" id="downloadSvg" xmlns="http://www.w3.org/2000/svg" xmlns:xlink="http://www.w3.org/1999/xlink" x="0px" y="0px" viewBox="0 0 1200 1200" enable-background="new 0 0 1200 1200" xml:space="preserve" height="512" width="512">
<g>
	<path fill="#5FBAA7" d="M600,89.286c-72.855,0-140.614,21.199-198.062,57.296c-36.096,57.447-57.296,125.207-57.296,198.061&#10;&#9;&#9;c0,232.631,309.62,579.241,364.755,639.12C819.531,846.809,973.214,626.404,973.214,462.5&#10;&#9;&#9;C973.214,256.379,806.121,89.286,600,89.286z M600,600c-75.938,0-137.5-61.561-137.5-137.499c0-75.939,61.562-137.5,137.5-137.5&#10;&#9;&#9;c75.939,0,137.5,61.561,137.5,137.5C737.5,538.439,675.939,600,600,600z" style="fill: rgb(214, 109, 42);"/>
	<g>
		<path fill="#2B2B2B" d="M600,50C372.554,50,187.5,235.054,187.5,462.5c0,267.959,368.341,658.764,384.014,675.28&#10;&#9;&#9;&#9;c7.423,7.808,17.725,12.22,28.485,12.22c10.762,0,21.063-4.412,28.486-12.22C644.158,1121.265,1012.5,730.46,1012.5,462.5&#10;&#9;&#9;&#9;C1012.5,235.054,827.446,50,600,50z M600,1052.342c-85.515-96.2-333.928-392.685-333.928-589.842&#10;&#9;&#9;&#9;c0-184.133,149.796-333.929,333.928-333.929S933.929,278.368,933.929,462.5C933.929,659.447,685.496,956.084,600,1052.342z" style="fill: rgb(0, 0, 0);"/>
		<path fill="#2B2B2B" d="M600,285.714c-97.485,0-176.785,79.3-176.785,176.786c0,97.485,79.3,176.785,176.785,176.785&#10;&#9;&#9;&#9;c97.486,0,176.786-79.3,176.786-176.785C776.786,365.014,697.486,285.714,600,285.714z M600,560.715&#10;&#9;&#9;&#9;c-54.152,0-98.214-44.062-98.214-98.214c0-54.153,44.062-98.215,98.214-98.215c54.153,0,98.214,44.062,98.214,98.215&#10;&#9;&#9;&#9;C698.214,516.652,654.152,560.715,600,560.715z" style="fill: rgb(0, 0, 0);"/>
	</g>
</g>
</svg>